<?xml version="1.0" standalone="no"?>
<!DOCTYPE svg PUBLIC "-//W3C//DTD SVG 20010904//EN"
 "http://www.w3.org/TR/2001/REC-SVG-20010904/DTD/svg10.dtd">
<svg version="1.0" xmlns="http://www.w3.org/2000/svg"
 width="1000.000000pt" height="1000.000000pt" viewBox="0 0 1000.000000 1000.000000"
 preserveAspectRatio="xMidYMid meet">
<metadata>
Created by potrace 1.11, written by Peter Selinger 2001-2013
</metadata>
<g transform="translate(0.000000,1000.000000) scale(0.100000,-0.100000)"
fill="#000000" stroke="none">
<path d="M2010 8870 l0 -70 320 0 320 0 0 -730 0 -730 -320 0 -320 0 0 -70 0
-70 320 0 320 0 0 -3075 0 -3075 420 0 420 0 0 3075 0 3075 130 0 130 0 0
-3075 0 -3075 125 0 125 0 0 3075 0 3075 1308 1 c1291 0 1364 1 1472 14 30 4
66 8 80 10 61 6 245 47 331 74 627 193 936 616 739 1013 -86 173 -253 319
-494 433 -146 69 -329 129 -456 149 -19 3 -45 8 -57 10 -11 3 -41 7 -65 11
-23 3 -59 9 -78 13 -19 3 -1100 8 -2402 9 l-2368 3 0 -70z m1740 -800 l0 -730
-130 0 -130 0 0 730 0 730 130 0 130 0 0 -730z m2400 702 c459 -88 765 -241
912 -456 63 -92 81 -153 76 -266 -3 -83 -8 -104 -37 -161 -121 -245 -449 -425
-951 -521 -113 -21 -134 -22 -1132 -25 l-1018 -4 0 731 0 731 1018 -4 c998 -3
1019 -4 1132 -25z"/>
</g>
</svg>
